# xmcd
#
# Track frame offsets:
#	150
#	13636
#	28706
#	50384
#	68749
#	84256
#	99405
#	116066
#	129216
#	147206
#	162679
#	179346
#	197368
#	218981
#	236929
#	257131
#	276426
#	295481
#
# Disc length: 4161 seconds
#
# Revision: 0
# Processed by: cddbd v1.5.2PL0 Copyright (c) Steve Scherf et al.
# Submitted via: EasyCDDAExtractor 11.9.9.666
#
DISCID=0c103f12
DTITLE=Zapato 3 - 18 Exitos de Zapato 3
DYEAR=1900
DGENRE=
TTITLE0=Dejame hablar
TTITLE1=Nauseas nocturnas
TTITLE2=No puedo despegar
TTITLE3=Ahora estoy sin ti
TTITLE4=Como un fantasma
TTITLE5=Azul, azul
TTITLE6=Pantaletas negras
TTITLE7=Miss dinastia
TTITLE8=Amo las estrellas
TTITLE9=Uñas asesinas
TTITLE10=Tan cerca de ti
TTITLE11=Oceano de tristezas II
TTITLE12=Obstinado
TTITLE13=Separacion
TTITLE14=Amor de hierro
TTITLE15=Pienso perdonarte
TTITLE16=Amor es sangre
TTITLE17=En tus manos
EXTD=
EXTT0=
EXTT1=
EXTT2=
EXTT3=
EXTT4=
EXTT5=
EXTT6=
EXTT7=
EXTT8=
EXTT9=
EXTT10=
EXTT11=
EXTT12=
EXTT13=
EXTT14=
EXTT15=
EXTT16=
EXTT17=
PLAYORDER=
